<svg width="25" height="24" viewBox="0 0 25 24" fill="none" xmlns="http://www.w3.org/2000/svg">
<path d="M12.7079 24C9.43445 24 9.04856 23.9827 7.77111 23.9268C6.77493 23.8941 5.79165 23.6915 4.86359 23.328C3.25789 22.7031 1.9882 21.433 1.36393 19.827C1.01437 18.8956 0.825826 17.9115 0.806375 16.9168C0.731857 15.642 0.731857 15.2242 0.731857 11.976C0.731857 8.69328 0.749156 8.31005 0.806375 7.03925C0.826252 6.04594 1.01479 5.06322 1.36393 4.13307C1.98752 2.52499 3.25927 1.25372 4.86759 0.630738C5.79725 0.27971 6.78022 0.0906777 7.77377 0.0718563C9.04457 0 9.4624 0 12.7079 0C16.008 0 16.3872 0.0172987 17.6447 0.0718563C18.6408 0.0908405 19.6264 0.279853 20.5589 0.630738C22.1667 1.25443 23.4382 2.52545 24.0625 4.13307C24.418 5.07677 24.6075 6.07485 24.6227 7.08317C24.6973 8.35795 24.6973 8.77445 24.6973 12.0213C24.6973 15.2681 24.6786 15.6939 24.6227 16.9541C24.6029 17.9497 24.4139 18.9347 24.0639 19.8669C23.438 21.474 22.1664 22.7446 20.5589 23.3693C19.6277 23.7181 18.6442 23.9067 17.65 23.9268C16.3792 24 15.9627 24 12.7079 24ZM12.6627 2.10645C9.40784 2.10645 9.06985 2.12242 7.79906 2.17964C7.04055 2.18969 6.28938 2.32966 5.57816 2.59348C4.52794 2.99535 3.6969 3.82301 3.29074 4.87159C3.02489 5.59055 2.88489 6.34994 2.8769 7.11643C2.80637 8.40585 2.80637 8.74385 2.80637 11.976C2.80637 15.1697 2.81835 15.5569 2.8769 16.8383C2.88881 17.5971 3.02872 18.3484 3.29074 19.0605C3.69749 20.1084 4.52839 20.9355 5.57816 21.3373C6.2889 21.6029 7.04037 21.7429 7.79906 21.7512C9.08715 21.8257 9.42647 21.8257 12.6627 21.8257C15.9268 21.8257 16.2648 21.8097 17.5249 21.7512C18.284 21.7419 19.0357 21.6019 19.7472 21.3373C20.791 20.932 21.6167 20.1068 22.0226 19.0632C22.2879 18.3436 22.4279 17.5839 22.4364 16.817H22.4511C22.5083 15.5449 22.5083 15.2056 22.5083 11.9548C22.5083 8.70393 22.4937 8.36194 22.4364 7.09115C22.4245 6.33327 22.2846 5.58285 22.0226 4.87159C21.6176 3.82644 20.7918 2.99972 19.7472 2.59348C19.0358 2.32833 18.284 2.18832 17.5249 2.17964C16.2382 2.10645 15.9015 2.10645 12.6627 2.10645ZM12.7079 18.1224C10.2195 18.124 7.97526 16.6264 7.02176 14.328C6.06826 12.0295 6.59334 9.38301 8.35213 7.6227C10.1109 5.8624 12.757 5.33502 15.0562 6.28654C17.3555 7.23805 18.8551 9.48102 18.8556 11.9694C18.8519 15.364 16.1025 18.1158 12.7079 18.1224ZM12.7079 7.97472C10.5032 7.97472 8.71589 9.762 8.71589 11.9667C8.71589 14.1715 10.5032 15.9587 12.7079 15.9587C14.9126 15.9587 16.6999 14.1715 16.6999 11.9667C16.6948 9.76413 14.9105 7.97984 12.7079 7.97472ZM19.0951 7.02595C18.3039 7.02301 17.6645 6.38002 17.666 5.58883C17.6675 4.79764 18.3093 4.15703 19.1004 4.15703C19.8916 4.15703 20.5334 4.79763 20.5349 5.58882C20.5353 5.97054 20.3836 6.33669 20.1134 6.60636C19.8433 6.87602 19.4768 7.02701 19.0951 7.02595Z" fill="white"/>
</svg>
