<svg width="25" height="24" viewBox="0 0 25 24" fill="none" xmlns="http://www.w3.org/2000/svg">
<path d="M13.608 24H8.27465V8H13.608V10.6667C14.7448 9.22034 16.4688 8.3581 18.308 8.316C21.6154 8.33436 24.2843 11.0258 24.2747 14.3333V24H18.9413V15C18.728 13.5102 17.4503 12.4048 15.9453 12.408C15.287 12.4288 14.6656 12.717 14.2246 13.2062C13.7835 13.6953 13.5608 14.3431 13.608 15V24ZM5.60798 24H0.274651V8H5.60798V24ZM2.94132 5.33333C1.46856 5.33333 0.274651 4.13943 0.274651 2.66667C0.274651 1.19391 1.46856 0 2.94132 0C4.41408 0 5.60798 1.19391 5.60798 2.66667C5.60798 3.37391 5.32703 4.05219 4.82694 4.55229C4.32684 5.05238 3.64856 5.33333 2.94132 5.33333Z" fill="white"/>
</svg>
