<svg width="30" height="24" viewBox="0 0 30 24" fill="none" xmlns="http://www.w3.org/2000/svg">
<path d="M26.0658 3.78429C27.3319 3.02734 28.2794 1.83542 28.7311 0.431086C27.5413 1.13704 26.2395 1.63434 24.8821 1.90147C23.0001 -0.0893713 20.0183 -0.573851 17.6028 0.718744C15.1873 2.01134 13.9362 4.761 14.5485 7.4313C9.67488 7.18662 5.13429 4.88449 2.05656 1.09777C0.450352 3.86822 1.27116 7.4098 3.93232 9.19124C2.97002 9.1603 2.02905 8.89976 1.18789 8.43133C1.18789 8.45675 1.18789 8.48218 1.18789 8.5076C1.18845 11.3935 3.22237 13.8793 6.05103 14.4513C5.15844 14.6941 4.22217 14.7299 3.31366 14.5558C4.10916 17.0238 6.38374 18.7145 8.97626 18.765C6.82906 20.4502 4.17735 21.3642 1.44778 21.3597C0.963971 21.3604 0.480538 21.3326 0 21.2764C2.77182 23.0575 5.99788 24.0029 9.29265 23.9996C13.8765 24.0311 18.2817 22.224 21.5229 18.9825C24.7641 15.7411 26.5708 11.3357 26.5389 6.7519C26.5389 6.48918 26.5328 6.22787 26.5206 5.96798C27.7077 5.11004 28.7322 4.04723 29.5461 2.82946C28.4401 3.31968 27.267 3.64153 26.0658 3.78429Z" fill="white"/>
</svg>
